<svg xmlns="http://www.w3.org/2000/svg" viewBox="0 0 64 64">
  <rect x="0" y="0" width="16" height="32"/>
  <rect x="16" y="0" width="16" height="16"/>
  <rect x="32" y="0" width="32" height="16"/>
  <rect x="16" y="16" width="16" height="16"/>
  <rect x="32" y="16" width="16" height="16"/>
  <rect x="48" y="16" width="16" height="16"/>
  <rect x="0" y="32" width="16" height="8"/>
  <rect x="16" y="32" width="8" height="16"/>
  <rect x="24" y="32" width="1" height="24"/>
  <rect x="25" y="32" width="1" height="24"/>
  <rect x="26" y="32" width="2" height="24"/>
  <rect x="28" y="32" width="4" height="24"/>
  <rect x="32" y="32" width="32" height="32"/>
  <rect x="0" y="40" width="8" height="8"/>
  <rect x="8" y="40" width="8" height="8"/>
  <rect x="0" y="48" width="8" height="8"/>
  <rect x="8" y="48" width="8" height="4"/>
  <rect x="16" y="48" width="4" height="8"/>
  <rect x="20" y="48" width="4" height="8"/>
  <rect x="8" y="52" width="8" height="4"/>
  <rect x="0" y="56" width="32" height="1"/>
  <rect x="0" y="57" width="32" height="1"/>
  <rect x="0" y="58" width="32" height="2"/>
  <rect x="0" y="60" width="32" height="4"/>
</svg>
